<svg width="370" height="108" viewBox="0 0 370 108" fill="none" xmlns="http://www.w3.org/2000/svg">
<path d="M82.5406 35.4515L49.1299 15.9463L12.263 37.452C1.56503 42.6201 -4.03084 30.1707 3.37545 24.9487C10.7818 19.7267 41.6249 2.5761 41.8882 2.44274C47.9778 -1.55833 52.4216 0.250609 54.7258 1.60918C65.7529 8.11091 88.7618 21.6145 92.5802 23.615C97.5177 26.2019 98.176 30.2835 98.176 33.9511V43.2869C98.176 52.2893 93.8969 53.1229 92.5802 54.1231L82.5406 59.958C77.9322 63.1255 74.8799 63.2079 68.7155 59.2912L33.8236 39.1191L49.1299 30.2835L76.2864 46.121L82.5406 41.9532V35.4515Z" fill="#756DFF"/>
<path d="M15.6355 72.8737L49.0461 92.2L85.913 70.8916C96.611 65.7709 102.207 78.1061 94.8006 83.2802C87.3943 88.4543 56.5511 105.448 56.2878 105.58C50.1982 109.544 45.7544 107.752 43.4502 106.406C32.4231 99.9635 9.41419 86.5838 5.59583 84.6016C0.658292 82.0385 2.79869e-09 77.9944 2.79869e-09 74.3604V65.1102C2.79869e-09 56.1904 4.27911 55.3645 5.59583 54.3734L15.6355 48.5921C20.2438 45.4536 23.2961 45.372 29.4606 49.2528L64.3524 69.2398L49.0461 77.9944L21.8897 62.3021L15.6355 66.4317V72.8737Z" fill="black"/>
<path d="M123.259 26.0571C123.259 22.0952 124.073 18.5714 125.699 15.4857C127.364 12.3619 129.71 9.94286 132.736 8.22857C135.763 6.47619 139.243 5.6 143.178 5.6C148.172 5.6 152.371 6.95238 155.776 9.65714C159.181 12.3238 161.376 15.9619 162.359 20.5714H150.385C149.666 19.0476 148.664 17.8857 147.378 17.0857C146.129 16.2857 144.672 15.8857 143.008 15.8857C140.435 15.8857 138.373 16.819 136.822 18.6857C135.309 20.5143 134.552 22.9714 134.552 26.0571C134.552 29.181 135.309 31.6762 136.822 33.5429C138.373 35.3714 140.435 36.2857 143.008 36.2857C144.672 36.2857 146.129 35.8857 147.378 35.0857C148.664 34.2857 149.666 33.1238 150.385 31.6H162.359C161.376 36.2095 159.181 39.8667 155.776 42.5714C152.371 45.2381 148.172 46.5714 143.178 46.5714C139.243 46.5714 135.763 45.7143 132.736 44C129.71 42.2476 127.364 39.8286 125.699 36.7429C124.073 33.619 123.259 30.0571 123.259 26.0571Z" fill="#6C63FF"/>
<path d="M192.936 39.7143H178.749L176.593 46.2857H164.902L179.487 6H192.312L206.84 46.2857H195.093L192.936 39.7143ZM190.156 31.1429L185.843 18.1143L181.587 31.1429H190.156Z" fill="#6C63FF"/>
<path d="M257.17 6V46.2857H246.047V24.0571L238.499 46.2857H229.193L221.588 23.8857V46.2857H210.465V6H223.915L233.959 32.1714L243.777 6H257.17Z" fill="#6C63FF"/>
<path d="M295.111 19.4286C295.111 21.8667 294.543 24.0952 293.408 26.1143C292.311 28.0952 290.627 29.6952 288.357 30.9143C286.125 32.0952 283.382 32.6857 280.129 32.6857H274.624V46.2857H263.501V6H280.129C283.345 6 286.069 6.57143 288.301 7.71429C290.571 8.85714 292.273 10.4381 293.408 12.4571C294.543 14.4762 295.111 16.8 295.111 19.4286ZM279.051 23.7714C282.191 23.7714 283.761 22.3238 283.761 19.4286C283.761 16.4952 282.191 15.0286 279.051 15.0286H274.624V23.7714H279.051Z" fill="#6C63FF"/>
<path d="M310.475 6V29.3714C310.475 31.5429 310.967 33.219 311.951 34.4C312.972 35.581 314.504 36.1714 316.547 36.1714C318.59 36.1714 320.122 35.581 321.144 34.4C322.203 33.181 322.733 31.5048 322.733 29.3714V6H333.856V29.3714C333.856 33.0667 333.08 36.2286 331.529 38.8571C329.978 41.4476 327.859 43.4095 325.173 44.7429C322.525 46.0381 319.574 46.6857 316.32 46.6857C313.067 46.6857 310.153 46.0381 307.581 44.7429C305.046 43.4095 303.041 41.4476 301.565 38.8571C300.128 36.2667 299.409 33.1048 299.409 29.3714V6H310.475Z" fill="#6C63FF"/>
<path d="M355.075 46.6857C350.422 46.6857 346.6 45.581 343.612 43.3714C340.623 41.1238 339.015 37.9238 338.788 33.7714H350.649C350.762 35.181 351.178 36.2095 351.897 36.8571C352.616 37.5048 353.543 37.8286 354.678 37.8286C355.699 37.8286 356.532 37.581 357.175 37.0857C357.856 36.5524 358.196 35.8286 358.196 34.9143C358.196 33.7333 357.648 32.819 356.55 32.1714C355.453 31.5238 353.675 30.8 351.216 30C348.606 29.1238 346.487 28.2857 344.86 27.4857C343.271 26.6476 341.871 25.4476 340.661 23.8857C339.488 22.2857 338.901 20.2095 338.901 17.6571C338.901 15.0667 339.545 12.8571 340.831 11.0286C342.117 9.1619 343.895 7.75238 346.165 6.8C348.435 5.84762 351.008 5.37143 353.883 5.37143C358.537 5.37143 362.244 6.47619 365.006 8.68571C367.806 10.8571 369.3 13.9238 369.489 17.8857H357.402C357.364 16.6667 356.986 15.7524 356.267 15.1429C355.586 14.5333 354.697 14.2286 353.599 14.2286C352.767 14.2286 352.086 14.4762 351.557 14.9714C351.027 15.4667 350.762 16.1714 350.762 17.0857C350.762 17.8476 351.046 18.5143 351.613 19.0857C352.219 19.619 352.956 20.0952 353.826 20.5143C354.697 20.8952 355.983 21.3905 357.685 22C360.22 22.8762 362.301 23.7524 363.928 24.6286C365.592 25.4667 367.011 26.6667 368.184 28.2286C369.395 29.7524 370 31.6952 370 34.0571C370 36.4571 369.395 38.6095 368.184 40.5143C367.011 42.4191 365.29 43.9238 363.02 45.0286C360.788 46.1333 358.139 46.6857 355.075 46.6857Z" fill="#6C63FF"/>
<path d="M139.716 99.2571C135.063 99.2571 131.242 98.1524 128.253 95.9429C125.264 93.6952 123.656 90.4952 123.429 86.3429H135.29C135.403 87.7524 135.82 88.781 136.538 89.4286C137.257 90.0762 138.184 90.4 139.319 90.4C140.341 90.4 141.173 90.1524 141.816 89.6571C142.497 89.1238 142.838 88.4 142.838 87.4857C142.838 86.3048 142.289 85.3905 141.192 84.7429C140.095 84.0952 138.317 83.3714 135.857 82.5714C133.247 81.6952 131.128 80.8571 129.502 80.0571C127.913 79.219 126.513 78.0191 125.302 76.4571C124.129 74.8571 123.543 72.781 123.543 70.2286C123.543 67.6381 124.186 65.4286 125.472 63.6C126.759 61.7333 128.537 60.3238 130.807 59.3714C133.077 58.419 135.649 57.9429 138.525 57.9429C143.178 57.9429 146.886 59.0476 149.648 61.2571C152.447 63.4286 153.942 66.4952 154.131 70.4571H142.043C142.005 69.2381 141.627 68.3238 140.908 67.7143C140.227 67.1048 139.338 66.8 138.241 66.8C137.409 66.8 136.728 67.0476 136.198 67.5429C135.668 68.0381 135.403 68.7429 135.403 69.6571C135.403 70.419 135.687 71.0857 136.255 71.6571C136.86 72.1905 137.598 72.6667 138.468 73.0857C139.338 73.4667 140.624 73.9619 142.327 74.5714C144.862 75.4476 146.942 76.3238 148.569 77.2C150.234 78.0381 151.653 79.2381 152.825 80.8C154.036 82.3238 154.641 84.2667 154.641 86.6286C154.641 89.0286 154.036 91.181 152.825 93.0857C151.653 94.9905 149.931 96.4952 147.661 97.6C145.429 98.7048 142.781 99.2571 139.716 99.2571Z" fill="#6C63FF"/>
<path d="M195.621 58.5714V98.8571H184.498V82.6857H170.935V98.8571H159.812V58.5714H170.935V73.7143H184.498V58.5714H195.621Z" fill="#6C63FF"/>
<path d="M227.296 92.2857H213.109L210.953 98.8571H199.262L213.847 58.5714H226.672L241.2 98.8571H229.453L227.296 92.2857ZM224.516 83.7143L220.203 70.6857L215.946 83.7143H224.516Z" fill="#6C63FF"/>
<path d="M265.085 98.8571L257.14 84H255.948V98.8571H244.825V58.5714H262.361C265.576 58.5714 268.3 59.1429 270.532 60.2857C272.765 61.3905 274.448 62.9333 275.583 64.9143C276.718 66.8571 277.286 69.0476 277.286 71.4857C277.286 74.2286 276.529 76.6476 275.016 78.7429C273.54 80.8 271.365 82.2667 268.49 83.1429L277.513 98.8571H265.085ZM255.948 76.3429H261.453C262.966 76.3429 264.101 75.981 264.858 75.2571C265.614 74.5333 265.993 73.4857 265.993 72.1143C265.993 70.819 265.595 69.8095 264.801 69.0857C264.044 68.3238 262.928 67.9429 261.453 67.9429H255.948V76.3429Z" fill="#6C63FF"/>
<path d="M293.467 67.5429V74.1143H306.235V82.6286H293.467V89.8857H307.938V98.8571H282.344V58.5714H307.938V67.5429H293.467Z" fill="#6C63FF"/>
</svg>
