<svg width="801" height="240" viewBox="0 0 801 240" fill="none" xmlns="http://www.w3.org/2000/svg">
<path d="M483.516 153.092C493.127 137.849 498.761 119.955 498.761 100.736C498.761 46.3915 454.684 1.98816 400.003 1.98816C345.653 1.98816 301.245 46.0601 301.245 100.736C301.245 119.955 306.879 138.18 316.489 153.092L483.516 153.092Z" fill="#EEE1C0"/>
<g opacity="0.7">
<path d="M319.141 153.092C309.199 137.849 303.565 119.955 303.565 100.736C303.565 47.717 346.978 4.30779 400.003 4.30779C453.027 4.30779 496.441 47.717 496.441 100.736C496.441 119.955 490.807 138.18 480.865 153.092H486.168C495.447 137.849 501.081 119.955 501.081 100.736C501.081 45.066 456.01 0 400.334 0C344.659 0 299.588 45.066 299.588 100.736C299.588 119.955 304.89 137.849 314.501 153.092H319.141Z" fill="#002323"/>
<path d="M343.996 153.092C331.071 139.506 323.118 120.949 323.118 100.736C323.118 58.3207 357.583 24.1898 399.672 24.1898C442.091 24.1898 476.225 58.6521 476.225 100.736C476.225 120.949 468.272 139.506 455.347 153.092H461.312C473.243 138.843 480.534 120.618 480.534 100.736C480.534 56.0011 444.079 19.5507 399.34 19.5507C354.601 19.5507 318.146 56.0011 318.146 100.736C318.146 120.618 325.437 139.174 337.368 153.092H343.996Z" fill="#002323"/>
<path d="M368.188 153.092H377.799C357.252 144.476 343.002 124.263 343.002 100.736C343.002 69.2559 368.52 43.7405 400.003 43.7405C431.486 43.7405 457.004 69.2559 457.004 100.736C457.004 124.263 442.754 144.476 422.207 153.092H431.818C449.713 142.488 461.312 122.937 461.312 100.736C461.312 66.9363 433.806 39.4327 400.003 39.4327C366.2 39.4327 338.693 66.9363 338.693 100.736C338.693 122.937 350.293 142.488 368.188 153.092Z" fill="#002323"/>
<path d="M400.003 142.157C377.136 142.157 358.246 123.6 358.246 100.404C358.246 77.5401 376.805 58.6521 400.003 58.6521C422.87 58.6521 441.76 77.2087 441.76 100.404C441.428 123.6 422.87 142.157 400.003 142.157ZM400.003 63.2912C379.456 63.2912 362.886 79.8596 362.886 100.404C362.886 120.949 379.456 137.518 400.003 137.518C420.55 137.518 437.12 120.949 437.12 100.404C437.12 79.8596 420.55 63.2912 400.003 63.2912Z" fill="#002323"/>
<path d="M400.003 122.606C388.072 122.606 378.13 112.665 378.13 100.736C378.13 88.8066 388.072 78.8656 400.003 78.8656C411.933 78.8656 421.875 88.8066 421.875 100.736C421.875 112.665 411.933 122.606 400.003 122.606ZM400.003 83.1734C390.392 83.1734 382.439 91.1262 382.439 100.736C382.439 110.346 390.392 118.298 400.003 118.298C409.614 118.298 417.567 110.346 417.567 100.736C417.567 91.1262 409.614 83.1734 400.003 83.1734Z" fill="#002323"/>
</g>
<path d="M384.096 199.483C393.706 184.24 399.34 166.347 399.34 147.127C399.34 92.7829 355.264 48.3796 300.582 48.3796C246.232 48.3796 201.824 92.4516 201.824 147.127C201.824 166.347 207.458 184.572 217.069 199.483L384.096 199.483Z" fill="#EEE1C0"/>
<g opacity="0.7">
<path d="M219.72 199.483C209.778 184.241 204.144 166.347 204.144 147.127C204.144 94.1085 247.558 50.6993 300.582 50.6993C353.607 50.6993 397.02 94.1085 397.02 147.127C397.02 166.347 391.386 184.572 381.444 199.483H386.747C396.026 184.241 401.66 166.347 401.66 147.127C401.66 91.4575 356.589 46.3915 300.914 46.3915C245.238 46.3915 200.167 91.4575 200.167 147.127C200.167 166.347 205.47 184.241 215.08 199.483H219.72Z" fill="#002323"/>
<path d="M244.575 199.483C231.65 185.897 223.697 167.341 223.697 147.127C223.697 104.712 258.163 70.5813 300.251 70.5813C342.339 70.5813 376.805 105.044 376.805 147.127C376.805 167.341 368.851 185.897 355.926 199.483H361.892C373.822 185.235 381.113 167.009 381.113 147.127C381.113 102.393 344.659 65.9421 299.919 65.9421C255.18 65.9421 218.726 102.393 218.726 147.127C218.726 167.009 226.017 185.566 237.947 199.483H244.575Z" fill="#002323"/>
<path d="M268.767 199.483H278.378C257.831 190.868 243.581 170.654 243.581 147.127C243.581 115.647 269.099 90.132 300.582 90.132C332.065 90.132 357.583 115.647 357.583 147.127C357.583 170.654 343.333 190.868 322.786 199.483H332.397C350.293 188.88 361.892 169.329 361.892 147.127C361.892 113.328 334.385 85.8242 300.582 85.8242C266.779 85.8242 239.273 113.328 239.273 147.127C238.941 168.998 250.872 188.548 268.767 199.483Z" fill="#002323"/>
<path d="M300.582 188.548C277.715 188.548 258.825 169.992 258.825 146.796C258.825 123.932 277.384 105.044 300.582 105.044C323.78 105.044 342.339 123.6 342.339 146.796C342.007 169.992 323.449 188.548 300.582 188.548ZM300.582 109.683C280.035 109.683 263.465 126.251 263.465 146.796C263.465 167.341 280.035 183.909 300.582 183.909C321.129 183.909 337.699 167.341 337.699 146.796C337.699 126.251 321.129 109.683 300.582 109.683Z" fill="#002323"/>
<path d="M300.582 168.666C288.652 168.666 278.71 158.725 278.71 146.796C278.71 134.867 288.652 124.926 300.582 124.926C312.513 124.926 322.455 134.867 322.455 146.796C322.455 159.057 312.513 168.666 300.582 168.666ZM300.582 129.233C290.971 129.233 283.018 137.186 283.018 146.796C283.018 156.406 290.971 164.358 300.582 164.358C310.193 164.358 318.146 156.406 318.146 146.796C318.146 137.186 310.193 129.233 300.582 129.233Z" fill="#002323"/>
</g>
<path d="M583.931 199.483C593.542 184.24 599.176 166.347 599.176 147.127C599.176 92.7829 555.099 48.3796 500.418 48.3796C446.068 48.3796 401.66 92.4516 401.66 147.127C401.66 166.347 407.294 184.572 416.904 199.483L583.931 199.483Z" fill="#EEE1C0"/>
<g opacity="0.7">
<path d="M419.556 199.483C409.614 184.241 403.98 166.347 403.98 147.127C403.98 94.1085 447.393 50.6993 500.418 50.6993C553.442 50.6993 596.856 94.1085 596.856 147.127C596.856 166.347 591.222 184.572 581.28 199.483H586.583C595.862 184.241 601.496 166.347 601.496 147.127C601.496 91.4575 556.425 46.3915 500.749 46.3915C445.074 46.3915 400.003 91.4575 400.003 147.127C400.003 166.347 405.305 184.241 414.916 199.483H419.556Z" fill="#002323"/>
<path d="M444.742 199.483C431.818 185.897 423.864 167.341 423.864 147.127C423.864 104.712 458.33 70.5813 500.418 70.5813C542.506 70.5813 576.972 105.044 576.972 147.127C576.972 167.341 569.018 185.897 556.094 199.483H562.059C573.989 185.235 581.28 167.009 581.28 147.127C581.28 102.393 544.826 65.9421 500.086 65.9421C455.347 65.9421 418.893 102.393 418.893 147.127C418.893 167.009 426.184 185.566 438.114 199.483H444.742Z" fill="#002323"/>
<path d="M468.935 199.483H478.545C457.998 190.868 443.748 170.654 443.748 147.127C443.748 115.647 469.266 90.132 500.749 90.132C532.233 90.132 557.751 115.647 557.751 147.127C557.751 170.654 543.5 190.868 522.953 199.483H532.564C550.46 188.88 562.059 169.329 562.059 147.127C562.059 113.328 534.552 85.8242 500.749 85.8242C466.946 85.8242 439.44 113.328 439.44 147.127C439.108 168.998 451.039 188.548 468.935 199.483Z" fill="#002323"/>
<path d="M500.418 188.548C477.551 188.548 458.661 169.992 458.661 146.796C458.661 123.932 477.22 105.044 500.418 105.044C523.285 105.044 542.175 123.6 542.175 146.796C542.175 169.992 523.616 188.548 500.418 188.548ZM500.418 109.683C479.871 109.683 463.301 126.251 463.301 146.796C463.301 167.341 479.871 183.909 500.418 183.909C520.965 183.909 537.535 167.341 537.535 146.796C537.866 126.251 520.965 109.683 500.418 109.683Z" fill="#002323"/>
<path d="M500.418 168.666C488.487 168.666 478.545 158.725 478.545 146.796C478.545 134.867 488.487 124.926 500.418 124.926C512.348 124.926 522.29 134.867 522.29 146.796C522.29 159.057 512.68 168.666 500.418 168.666ZM500.418 129.233C490.807 129.233 482.854 137.186 482.854 146.796C482.854 156.406 490.807 164.358 500.418 164.358C510.029 164.358 517.982 156.406 517.982 146.796C517.982 137.186 510.029 129.233 500.418 129.233Z" fill="#002323"/>
</g>
<path d="M290.971 240.242C295.611 228.644 298.594 216.052 298.594 202.797C298.594 148.453 254.517 104.049 199.836 104.049C145.154 104.049 101.078 148.121 101.078 202.797C101.078 216.052 103.729 228.644 108.7 240.242L290.971 240.242Z" fill="#EEE1C0"/>
<g opacity="0.7">
<path d="M111.02 240.242C106.049 228.644 103.398 216.052 103.398 202.797C103.398 149.778 146.811 106.369 199.836 106.369C252.86 106.369 296.274 149.778 296.274 202.797C296.274 216.052 293.623 228.644 288.652 240.242H293.291C297.931 228.644 300.582 216.052 300.582 202.797C300.582 147.127 255.511 102.061 199.836 102.061C144.16 102.061 99.0894 147.127 99.0894 202.797C99.0894 216.052 101.741 228.644 106.38 240.242H111.02Z" fill="#002323"/>
<path d="M133.224 240.242C126.927 228.975 123.282 216.383 123.282 202.797C123.282 160.382 157.748 126.251 199.836 126.251C241.924 126.251 276.39 160.713 276.39 202.797C276.39 216.383 272.744 229.307 266.448 240.242H271.75C277.715 228.975 281.029 216.383 281.029 202.797C281.029 158.062 244.575 121.612 199.836 121.612C155.096 121.612 118.642 158.062 118.642 202.797C118.642 216.383 121.956 228.975 127.921 240.242H133.224Z" fill="#002323"/>
<path d="M157.085 240.242C148.137 230.301 142.835 217.046 142.835 202.797C142.835 171.317 168.353 145.802 199.836 145.802C231.319 145.802 256.837 171.317 256.837 202.797C256.837 217.046 251.535 230.301 242.587 240.242H248.221C256.174 229.969 261.145 216.715 261.145 202.797C261.145 168.998 233.639 141.494 199.836 141.494C166.033 141.494 138.526 168.998 138.526 202.797C138.526 217.046 143.497 229.969 151.451 240.242H157.085Z" fill="#002323"/>
<path d="M181.94 240.242H217.731C231.65 233.614 241.592 219.366 241.592 202.797C241.592 179.933 223.034 161.045 199.836 161.045C176.969 161.045 158.079 179.601 158.079 202.797C158.079 219.034 168.021 233.283 181.94 240.242ZM199.836 165.353C220.383 165.353 236.953 181.921 236.953 202.466C236.953 223.011 220.383 239.579 199.836 239.579C179.289 239.579 162.719 223.011 162.719 202.466C162.719 181.921 179.289 165.353 199.836 165.353Z" fill="#002323"/>
<path d="M199.836 224.667C187.905 224.667 177.963 214.726 177.963 202.797C177.963 190.868 187.905 180.927 199.836 180.927C211.766 180.927 221.708 190.868 221.708 202.797C221.708 214.726 212.098 224.667 199.836 224.667ZM199.836 185.235C190.225 185.235 182.271 193.188 182.271 202.797C182.271 212.407 190.225 220.36 199.836 220.36C209.446 220.36 217.4 212.407 217.4 202.797C217.4 192.856 209.446 185.235 199.836 185.235Z" fill="#002323"/>
</g>
<path d="M491.139 240.242C495.778 228.644 498.761 216.052 498.761 202.797C498.761 148.453 454.684 104.049 400.003 104.049C345.653 104.049 301.245 148.121 301.245 202.797C301.245 216.052 303.896 228.644 308.867 240.242L491.139 240.242Z" fill="#EEE1C0"/>
<g opacity="0.7">
<path d="M311.187 240.242C306.216 228.644 303.565 216.052 303.565 202.797C303.565 149.778 346.979 106.369 400.003 106.369C453.027 106.369 496.441 149.778 496.441 202.797C496.441 216.052 493.79 228.644 488.819 240.242H493.458C498.098 228.644 500.749 216.052 500.749 202.797C500.749 147.127 455.679 102.061 400.003 102.061C344.327 102.061 299.257 147.127 299.257 202.797C299.257 216.052 301.908 228.644 306.547 240.242H311.187Z" fill="#002323"/>
<path d="M333.06 240.242C326.763 228.975 323.118 216.383 323.118 202.797C323.118 160.382 357.583 126.251 399.672 126.251C442.091 126.251 476.225 160.713 476.225 202.797C476.225 216.383 472.58 229.307 466.283 240.242H471.254C477.22 228.975 480.534 216.383 480.534 202.797C480.534 158.062 444.079 121.612 399.34 121.612C354.601 121.612 318.146 158.062 318.146 202.797C318.146 216.383 321.461 228.975 327.426 240.242H333.06Z" fill="#002323"/>
<path d="M357.252 240.242C348.304 230.301 343.002 217.046 343.002 202.797C343.002 171.317 368.52 145.802 400.003 145.802C431.486 145.802 457.004 171.317 457.004 202.797C457.004 217.046 451.702 230.301 442.754 240.242H448.388C456.341 229.969 461.312 216.715 461.312 202.797C461.312 168.998 433.806 141.494 400.003 141.494C366.2 141.494 338.693 168.998 338.693 202.797C338.693 217.046 343.664 229.969 351.618 240.242H357.252Z" fill="#002323"/>
<path d="M382.107 240.242H417.899C431.818 233.614 441.76 219.366 441.76 202.797C441.76 179.933 423.201 161.045 400.003 161.045C376.805 161.045 358.246 179.601 358.246 202.797C358.246 219.034 367.857 233.283 382.107 240.242ZM400.003 165.353C420.55 165.353 437.12 181.921 437.12 202.466C437.12 223.011 420.55 239.579 400.003 239.579C379.456 239.579 362.886 223.011 362.886 202.466C362.886 181.921 379.456 165.353 400.003 165.353Z" fill="#002323"/>
<path d="M400.003 224.667C388.072 224.667 378.13 214.726 378.13 202.797C378.13 190.868 388.072 180.927 400.003 180.927C411.933 180.927 421.875 190.868 421.875 202.797C421.875 214.726 411.933 224.667 400.003 224.667ZM400.003 185.235C390.392 185.235 382.439 193.188 382.439 202.797C382.439 212.407 390.392 220.36 400.003 220.36C409.614 220.36 417.567 212.407 417.567 202.797C417.567 192.856 409.614 185.235 400.003 185.235Z" fill="#002323"/>
</g>
<path d="M691.306 240.242C695.945 228.644 698.928 216.052 698.928 202.797C698.928 148.453 654.852 104.049 600.17 104.049C545.82 104.049 501.412 148.121 501.412 202.797C501.412 216.052 504.063 228.644 509.034 240.242L691.306 240.242Z" fill="#EEE1C0"/>
<g opacity="0.7">
<path d="M511.354 240.242C506.383 228.644 503.732 216.052 503.732 202.797C503.732 149.778 547.146 106.369 600.17 106.369C653.195 106.369 696.608 149.778 696.608 202.797C696.608 216.052 693.957 228.644 688.986 240.242H693.626C698.265 228.644 700.916 216.052 700.916 202.797C700.916 147.127 655.846 102.061 600.17 102.061C544.494 102.061 499.424 147.127 499.424 202.797C499.424 216.052 502.075 228.644 506.715 240.242H511.354Z" fill="#002323"/>
<path d="M533.227 240.242C526.93 228.975 523.285 216.383 523.285 202.797C523.285 160.382 557.751 126.251 599.839 126.251C641.927 126.251 676.393 160.713 676.393 202.797C676.393 216.383 672.747 229.307 666.451 240.242H671.422C677.387 228.975 680.701 216.383 680.701 202.797C680.701 158.062 644.247 121.612 599.507 121.612C554.768 121.612 518.314 158.062 518.314 202.797C518.314 216.383 521.628 228.975 527.593 240.242H533.227Z" fill="#002323"/>
<path d="M557.088 240.242C548.14 230.301 542.837 217.046 542.837 202.797C542.837 171.317 568.355 145.802 599.839 145.802C631.322 145.802 656.84 171.317 656.84 202.797C656.84 217.046 651.537 230.301 642.59 240.242H648.223C656.177 229.969 661.148 216.715 661.148 202.797C661.148 168.998 633.642 141.494 599.839 141.494C566.036 141.494 538.529 168.998 538.529 202.797C538.529 217.046 543.5 229.969 551.454 240.242H557.088Z" fill="#002323"/>
<path d="M581.943 240.242H617.734C631.653 233.614 641.595 219.366 641.595 202.797C641.595 179.933 623.037 161.045 599.839 161.045C576.972 161.045 558.082 179.601 558.082 202.797C558.413 219.034 568.024 233.283 581.943 240.242ZM599.839 165.353C620.386 165.353 636.956 181.921 636.956 202.466C636.956 223.011 620.386 239.579 599.839 239.579C579.292 239.579 562.722 223.011 562.722 202.466C562.722 181.921 579.292 165.353 599.839 165.353Z" fill="#002323"/>
<path d="M599.839 224.667C587.908 224.667 577.966 214.726 577.966 202.797C577.966 190.868 587.908 180.927 599.839 180.927C611.769 180.927 621.711 190.868 621.711 202.797C622.043 214.726 612.101 224.667 599.839 224.667ZM599.839 185.235C590.228 185.235 582.274 193.188 582.274 202.797C582.274 212.407 590.228 220.36 599.839 220.36C609.449 220.36 617.403 212.407 617.403 202.797C617.403 192.856 609.781 185.235 599.839 185.235Z" fill="#002323"/>
</g>
<path d="M198.51 240.242C194.202 189.874 151.782 150.441 100.415 150.441C48.7162 150.441 6.62805 189.874 2.31982 240.242L198.51 240.242Z" fill="#EEE1C0"/>
<g opacity="0.7">
<path d="M4.30823 240.242C8.61647 191.199 50.0418 152.429 100.415 152.429C150.788 152.429 191.882 190.868 196.522 240.242H200.83C196.522 188.88 153.108 148.121 100.415 148.121C47.722 148.121 4.30823 188.548 0 240.242H4.30823Z" fill="#002323"/>
<path d="M24.1924 240.242C28.5006 202.134 60.9781 172.311 100.415 172.311C139.852 172.311 172.329 202.134 176.638 240.242H180.946C176.638 199.483 142.172 168.004 100.415 168.004C58.6582 168.004 24.1924 199.815 19.8842 240.242H24.1924Z" fill="#002323"/>
<path d="M44.0765 240.242C48.3848 213.07 71.9144 191.862 100.415 191.862C128.916 191.862 152.445 212.738 156.753 240.242H161.062C156.753 210.419 131.235 187.554 100.415 187.554C69.5945 187.554 44.0765 210.419 39.7683 240.242H44.0765Z" fill="#002323"/>
<path d="M64.2921 240.242C68.2689 224.005 82.8506 211.744 100.415 211.744C117.979 211.744 132.561 224.005 136.538 240.242H141.177C137.201 221.354 120.299 207.436 100.415 207.436C80.5308 207.436 63.6293 221.685 59.6525 240.242H64.2921Z" fill="#002323"/>
<path d="M85.1705 240.242C88.1531 234.94 93.7869 231.295 100.415 231.295C107.043 231.295 112.345 234.94 115.66 240.242H120.631C117.317 232.62 109.694 226.987 100.415 226.987C91.4671 226.987 83.8449 232.289 80.1994 240.242H85.1705Z" fill="#002323"/>
</g>
<path d="M398.677 240.242C394.369 189.874 351.95 150.441 300.582 150.441C248.883 150.441 206.795 189.874 202.487 240.242L398.677 240.242Z" fill="#EEE1C0"/>
<g opacity="0.7">
<path d="M204.475 240.242C208.784 191.199 250.209 152.429 300.582 152.429C350.955 152.429 392.049 190.868 396.689 240.242H400.997C396.689 188.88 353.275 148.121 300.582 148.121C247.889 148.121 204.475 188.548 200.167 240.242H204.475Z" fill="#002323"/>
<path d="M224.36 240.242C228.668 202.134 261.145 172.311 300.582 172.311C340.019 172.311 372.496 202.134 376.805 240.242H381.113C376.805 199.483 342.339 168.004 300.582 168.004C258.825 168.004 224.36 199.815 220.051 240.242H224.36Z" fill="#002323"/>
<path d="M244.244 240.242C248.552 213.07 272.082 191.862 300.582 191.862C329.083 191.862 352.612 212.738 356.921 240.242H361.229C356.921 210.419 331.403 187.554 300.582 187.554C269.762 187.554 244.244 210.419 239.935 240.242H244.244Z" fill="#002323"/>
<path d="M264.128 240.242C268.105 224.005 282.686 211.744 300.251 211.744C317.815 211.744 332.397 224.005 336.374 240.242H341.013C337.036 221.354 320.135 207.436 300.251 207.436C280.367 207.436 263.465 221.685 259.488 240.242H264.128Z" fill="#002323"/>
<path d="M285.338 240.242C288.32 234.94 293.954 231.295 300.582 231.295C307.21 231.295 312.513 234.94 315.827 240.242H320.798C317.484 232.62 309.861 226.987 300.582 226.987C291.303 226.987 284.012 232.289 280.367 240.242H285.338Z" fill="#002323"/>
</g>
<path d="M598.844 240.242C594.536 189.874 552.117 150.441 500.749 150.441C449.05 150.441 406.962 189.874 402.654 240.242L598.844 240.242Z" fill="#EEE1C0"/>
<g opacity="0.7">
<path d="M404.643 240.242C408.951 191.199 450.376 152.429 500.749 152.429C551.122 152.429 592.216 190.868 596.856 240.242H601.164C596.856 188.88 553.442 148.121 500.749 148.121C448.056 148.121 404.643 188.548 400.334 240.242H404.643Z" fill="#002323"/>
<path d="M424.195 240.242C428.504 202.134 460.981 172.311 500.418 172.311C539.855 172.311 572.332 202.134 576.64 240.242H580.949C576.64 199.483 542.175 168.004 500.418 168.004C458.661 168.004 424.195 199.815 419.887 240.242H424.195Z" fill="#002323"/>
<path d="M444.411 240.242C448.719 213.07 472.249 191.862 500.749 191.862C529.25 191.862 552.78 212.738 557.088 240.242H561.396C557.088 210.419 531.57 187.554 500.749 187.554C469.929 187.554 444.411 210.419 440.103 240.242H444.411Z" fill="#002323"/>
<path d="M464.295 240.242C468.272 224.005 482.854 211.744 500.418 211.744C517.982 211.744 532.564 224.005 536.541 240.242H541.18C537.204 221.354 520.302 207.436 500.418 207.436C480.534 207.436 463.632 221.685 459.655 240.242H464.295Z" fill="#002323"/>
<path d="M485.505 240.242C488.487 234.94 494.121 231.295 500.749 231.295C507.377 231.295 512.68 234.94 515.994 240.242H520.965C517.651 232.62 510.029 226.987 500.749 226.987C491.801 226.987 484.179 232.289 480.534 240.242H485.505Z" fill="#002323"/>
</g>
<path d="M798.68 240.242C794.372 189.874 751.952 150.441 700.585 150.441C649.218 150.441 606.798 189.874 602.49 240.242L798.68 240.242Z" fill="#EEE1C0"/>
<g opacity="0.7">
<path d="M604.478 240.242C608.786 191.199 650.212 152.429 700.585 152.429C750.958 152.429 792.052 190.868 796.692 240.242H801C796.692 188.88 753.278 148.121 700.585 148.121C647.892 148.121 604.478 188.548 600.17 240.242H604.478Z" fill="#002323"/>
<path d="M624.362 240.242C628.671 202.134 661.148 172.311 700.585 172.311C740.022 172.311 772.499 202.134 776.808 240.242H781.116C776.808 199.483 742.342 168.004 700.585 168.004C658.828 168.004 624.362 199.815 620.054 240.242H624.362Z" fill="#002323"/>
<path d="M644.247 240.242C648.555 213.07 672.084 191.862 700.585 191.862C729.086 191.862 752.615 212.738 756.923 240.242H761.232C756.923 210.419 731.405 187.554 700.585 187.554C669.765 187.554 644.247 210.419 639.938 240.242H644.247Z" fill="#002323"/>
<path d="M664.462 240.242C668.439 224.005 683.021 211.744 700.585 211.744C718.149 211.744 732.731 224.005 736.708 240.242H741.348C737.371 221.354 720.469 207.436 700.585 207.436C680.701 207.436 663.799 221.685 659.823 240.242H664.462Z" fill="#002323"/>
<path d="M685.341 240.242C688.323 234.94 693.957 231.295 700.585 231.295C707.213 231.295 712.516 234.94 715.83 240.242H720.801C717.487 232.62 709.864 226.987 700.585 226.987C691.637 226.987 684.015 232.289 680.37 240.242H685.341Z" fill="#002323"/>
</g>
<path d="M274.401 240.242C256.174 219.366 229.662 206.111 199.836 206.111C170.01 206.111 143.166 219.366 125.27 240.242L274.401 240.242Z" fill="#EEE1C0"/>
<g opacity="0.7">
<path d="M128.253 240.242C145.817 220.691 171.667 208.099 199.836 208.099C228.336 208.099 253.854 220.36 271.419 240.242H277.053C258.494 218.04 230.656 203.791 199.504 203.791C168.353 203.791 140.515 218.04 121.956 240.242H128.253Z" fill="#002323"/>
<path d="M158.41 240.242C170.341 232.62 184.591 227.981 199.836 227.981C215.08 227.981 229.331 232.62 241.261 240.242H248.883C235.296 229.969 218.394 223.673 199.836 223.673C181.277 223.673 164.376 229.969 150.788 240.242H158.41Z" fill="#002323"/>
</g>
<path d="M474.568 240.242C456.341 219.366 429.829 206.111 400.003 206.111C370.177 206.111 343.333 219.366 325.437 240.242L474.568 240.242Z" fill="#EEE1C0"/>
<g opacity="0.7">
<path d="M328.089 240.242C345.653 220.691 371.502 208.099 399.671 208.099C427.841 208.099 453.69 220.36 471.254 240.242H476.888C458.33 218.04 430.492 203.791 399.34 203.791C368.188 203.791 340.35 218.04 321.792 240.242H328.089Z" fill="#002323"/>
<path d="M358.578 240.242C370.508 232.62 384.758 227.981 400.003 227.981C415.247 227.981 429.498 232.62 441.428 240.242H449.05C435.463 229.969 418.561 223.673 400.003 223.673C381.444 223.673 364.543 229.969 350.955 240.242H358.578Z" fill="#002323"/>
</g>
<path d="M674.736 240.242C656.509 219.366 629.996 206.111 600.17 206.111C570.344 206.111 543.5 219.366 525.604 240.242L674.736 240.242Z" fill="#EEE1C0"/>
<g opacity="0.7">
<path d="M528.256 240.242C545.82 220.691 571.669 208.099 599.839 208.099C628.008 208.099 653.857 220.36 671.422 240.242H677.055C658.497 218.04 630.659 203.791 599.507 203.791C568.355 203.791 540.518 218.04 521.959 240.242H528.256Z" fill="#002323"/>
<path d="M558.413 240.242C570.344 232.62 584.594 227.981 599.839 227.981C615.083 227.981 629.333 232.62 641.264 240.242H648.886C635.299 229.969 618.397 223.673 599.839 223.673C581.28 223.673 564.379 229.969 550.791 240.242H558.413Z" fill="#002323"/>
</g>
</svg>
