<svg width="31" height="31" viewBox="0 0 31 31" fill="none" xmlns="http://www.w3.org/2000/svg">
<path d="M15.4988 0C6.9406 0 0 6.93967 0 15.5007C0 22.348 4.44088 28.1581 10.6002 30.2087C11.3757 30.3506 11.6584 29.8719 11.6584 29.4608C11.6584 29.0926 11.6449 28.1182 11.6368 26.825C7.32531 27.7613 6.41565 24.7469 6.41565 24.7469C5.71055 22.9561 4.69429 22.4794 4.69429 22.4794C3.28695 21.5183 4.80083 21.5373 4.80083 21.5373C6.35661 21.6468 7.17494 23.1349 7.17494 23.1349C8.55754 25.5033 10.8032 24.8192 11.6862 24.4224C11.827 23.4214 12.2276 22.7382 12.6701 22.3509C9.22839 21.9589 5.60964 20.6295 5.60964 14.69C5.60964 12.9972 6.21389 11.6146 7.20539 10.5308C7.04544 10.1387 6.51361 8.56294 7.35779 6.42863C7.35779 6.42863 8.65853 6.01189 11.6198 8.01681C12.8558 7.67328 14.1823 7.50201 15.5002 7.49535C16.8171 7.50074 18.1426 7.67336 19.3805 8.01681C22.3399 6.01189 23.6387 6.42863 23.6387 6.42863C24.4846 8.56294 23.9527 10.1387 23.7938 10.5308C24.7872 11.6146 25.3867 12.9972 25.3867 14.69C25.3867 20.6448 21.7623 21.955 18.31 22.3384C18.8657 22.8171 19.3615 23.763 19.3615 25.2093C19.3615 27.2808 19.3426 28.9527 19.3426 29.4608C19.3426 29.8757 19.6224 30.3582 20.4083 30.2068C26.563 28.1525 31 22.3471 31 15.5007C31 6.93967 24.0598 0 15.4988 0Z" fill="#DBE3F0"/>
</svg>
