<svg width="339" height="78" viewBox="0 0 339 78" fill="none" xmlns="http://www.w3.org/2000/svg">
<path d="M333.651 28.7797C333.658 27.0013 333.168 25.2527 332.228 23.7109C331.289 22.169 329.934 20.8887 328.302 19.9995C328.342 19.563 328.342 19.1241 328.302 18.6876C328.302 16.6801 327.456 14.7549 325.952 13.3354C324.447 11.9159 322.406 11.1185 320.278 11.1185H319.797C319.351 9.95362 318.61 8.90965 317.637 8.07809C316.664 7.24654 315.49 6.6528 314.218 6.34895C312.945 6.0451 311.613 6.04042 310.338 6.33532C309.063 6.63022 307.885 7.21568 306.905 8.04038C305.926 7.21568 304.747 6.63022 303.472 6.33532C302.198 6.04042 300.865 6.0451 299.593 6.34895C298.32 6.6528 297.146 7.24654 296.174 8.07809C295.201 8.90965 294.459 9.95362 294.014 11.1185H293.533C291.405 11.1185 289.364 11.9159 287.859 13.3354C286.354 14.7549 285.509 16.6801 285.509 18.6876C285.469 19.1241 285.469 19.563 285.509 19.9995C283.991 20.8089 282.706 21.956 281.765 23.341C280.825 24.7259 280.257 26.3068 280.112 27.9459C279.967 29.585 280.249 31.2328 280.933 32.7456C281.617 34.2585 282.683 35.5907 284.038 36.6263C283.161 38.1685 282.725 39.8992 282.772 41.6486C282.818 43.398 283.346 45.1058 284.304 46.6046C285.261 48.1033 286.616 49.3414 288.234 50.1974C289.851 51.0533 291.678 51.4977 293.533 51.4869H294.014C294.459 52.6517 295.201 53.6957 296.174 54.5273C297.146 55.3588 298.32 55.9526 299.593 56.2564C300.865 56.5603 302.198 56.5649 303.472 56.27C304.747 55.9752 305.926 55.3897 306.905 54.565C307.885 55.3897 309.063 55.9752 310.338 56.27C311.613 56.5649 312.945 56.5603 314.218 56.2564C315.49 55.9526 316.664 55.3588 317.637 54.5273C318.61 53.6957 319.351 52.6517 319.797 51.4869H320.278C322.122 51.4759 323.931 51.0156 325.531 50.1507C327.13 49.2858 328.466 48.0456 329.407 46.5505C330.349 45.0553 330.866 43.3559 330.906 41.6171C330.947 39.8783 330.51 38.1591 329.639 36.6263C330.887 35.6841 331.894 34.4902 332.589 33.1323C333.283 31.7745 333.646 30.2872 333.651 28.7797ZM304.231 22.5982C303.648 22.2839 303.04 22.014 302.412 21.7909C301.738 21.5767 301.002 21.6239 300.365 21.922C299.728 22.2201 299.242 22.7447 299.015 23.3804C298.788 24.0161 298.838 24.7108 299.154 25.3117C299.47 25.9126 300.026 26.3705 300.7 26.5846C301.73 26.9357 302.62 27.5764 303.252 28.4201C303.883 29.2638 304.225 30.27 304.231 31.3027V35.2134C303.648 34.8991 303.04 34.6291 302.412 34.406C301.738 34.1919 301.002 34.239 300.365 34.5371C299.728 34.8352 299.242 35.3598 299.015 35.9955C298.788 36.6312 298.838 37.3259 299.154 37.9268C299.47 38.5277 300.026 38.9856 300.7 39.1998C301.73 39.5509 302.62 40.1915 303.252 41.0352C303.883 41.879 304.225 42.8851 304.231 43.9178V48.9639C304.231 49.633 303.949 50.2748 303.447 50.7479C302.946 51.2211 302.266 51.4869 301.556 51.4869C301.039 51.4837 300.533 51.339 300.101 51.0703C299.669 50.8016 299.329 50.4205 299.122 49.9731C299.571 49.7248 300 49.4466 300.406 49.1405C300.677 48.9284 300.9 48.6682 301.064 48.3747C301.228 48.0811 301.329 47.76 301.361 47.4297C301.393 47.0993 301.356 46.7662 301.252 46.4494C301.148 46.1325 300.979 45.8381 300.754 45.583C300.529 45.3279 300.253 45.117 299.942 44.9625C299.631 44.8079 299.29 44.7127 298.94 44.6822C298.59 44.6518 298.237 44.6867 297.901 44.785C297.565 44.8832 297.253 45.043 296.983 45.255C296.017 46.022 294.795 46.442 293.533 46.4408C292.114 46.4408 290.753 45.9092 289.75 44.9629C288.747 44.0166 288.183 42.7331 288.183 41.3948C288.196 40.4451 288.493 39.5181 289.039 38.7204C289.64 38.8219 290.248 38.8726 290.858 38.8718C291.567 38.8718 292.248 38.6059 292.749 38.1328C293.251 37.6596 293.533 37.0179 293.533 36.3487C293.533 35.6796 293.251 35.0378 292.749 34.5647C292.248 34.0915 291.567 33.8257 290.858 33.8257C290.226 33.8291 289.6 33.7178 289.013 33.4977C288.051 33.1704 287.208 32.5899 286.585 31.825C285.962 31.06 285.585 30.1426 285.498 29.1815C285.41 28.2204 285.617 27.2558 286.093 26.4021C286.569 25.5483 287.295 24.8411 288.183 24.3644C288.563 24.6942 288.975 24.9899 289.414 25.2474C290.031 25.582 290.764 25.6716 291.451 25.4965C292.138 25.3215 292.723 24.8961 293.078 24.3139C293.433 23.7317 293.528 23.0405 293.342 22.3923C293.156 21.7441 292.705 21.1919 292.088 20.8574C291.712 20.6614 291.398 20.3739 291.179 20.0248C290.932 19.6197 290.82 19.1536 290.858 18.6876C290.858 18.0184 291.14 17.3767 291.641 16.9035C292.143 16.4303 292.823 16.1645 293.533 16.1645C293.719 16.14 293.908 16.14 294.094 16.1645C294.236 16.5699 294.406 16.966 294.602 17.3503C294.777 17.6395 295.011 17.8931 295.29 18.0967C295.569 18.3002 295.888 18.4497 296.228 18.5365C296.569 18.6232 296.924 18.6456 297.274 18.6022C297.624 18.5589 297.961 18.4507 298.267 18.2839C298.859 17.9473 299.291 17.407 299.471 16.7766C299.65 16.1461 299.564 15.4746 299.229 14.903C299.005 14.516 298.885 14.0826 298.882 13.6415C298.882 12.9723 299.163 12.3306 299.665 11.8574C300.167 11.3843 300.847 11.1185 301.556 11.1185C302.266 11.1185 302.946 11.3843 303.447 11.8574C303.949 12.3306 304.231 12.9723 304.231 13.6415V22.5982ZM324.798 33.4977C324.211 33.7178 323.584 33.8291 322.953 33.8257C322.243 33.8257 321.563 34.0915 321.061 34.5647C320.56 35.0378 320.278 35.6796 320.278 36.3487C320.278 37.0179 320.56 37.6596 321.061 38.1328C321.563 38.6059 322.243 38.8718 322.953 38.8718C323.562 38.8726 324.171 38.8219 324.771 38.7204C325.318 39.5181 325.614 40.4451 325.627 41.3948C325.627 42.7331 325.064 44.0166 324.061 44.9629C323.057 45.9092 321.697 46.4408 320.278 46.4408C319.016 46.442 317.794 46.022 316.828 45.255C316.282 44.8268 315.578 44.6207 314.87 44.6822C314.163 44.7437 313.511 45.0678 313.057 45.583C312.603 46.0983 312.384 46.7625 312.45 47.4297C312.515 48.0968 312.858 48.7122 313.405 49.1405C313.811 49.4466 314.24 49.7248 314.688 49.9731C314.481 50.4205 314.141 50.8016 313.709 51.0703C313.277 51.339 312.772 51.4837 312.254 51.4869C311.545 51.4869 310.865 51.2211 310.363 50.7479C309.862 50.2748 309.58 49.633 309.58 48.9639V43.9178C309.586 42.8851 309.928 41.879 310.559 41.0352C311.19 40.1915 312.081 39.5509 313.11 39.1998C313.784 38.9856 314.34 38.5277 314.656 37.9268C314.972 37.3259 315.022 36.6312 314.795 35.9955C314.568 35.3598 314.083 34.8352 313.446 34.5371C312.809 34.239 312.072 34.1919 311.399 34.406C310.771 34.6291 310.162 34.8991 309.58 35.2134V31.3027C309.586 30.27 309.928 29.2638 310.559 28.4201C311.19 27.5764 312.081 26.9357 313.11 26.5846C313.784 26.3705 314.34 25.9126 314.656 25.3117C314.972 24.7108 315.022 24.0161 314.795 23.3804C314.568 22.7447 314.083 22.2201 313.446 21.922C312.809 21.6239 312.072 21.5767 311.399 21.7909C310.771 22.014 310.162 22.2839 309.58 22.5982V13.6415C309.58 12.9723 309.862 12.3306 310.363 11.8574C310.865 11.3843 311.545 11.1185 312.254 11.1185C312.964 11.1185 313.644 11.3843 314.146 11.8574C314.647 12.3306 314.929 12.9723 314.929 13.6415C314.925 14.0826 314.806 14.516 314.581 14.903C314.403 15.1895 314.287 15.5062 314.239 15.8352C314.191 16.1641 314.213 16.4987 314.302 16.8198C314.392 17.1409 314.547 17.4423 314.76 17.7065C314.974 17.9707 315.24 18.1926 315.544 18.3596C315.849 18.5264 316.187 18.6346 316.536 18.6779C316.886 18.7213 317.242 18.6989 317.582 18.6122C317.923 18.5254 318.242 18.3759 318.521 18.1724C318.8 17.9688 319.034 17.7151 319.208 17.426C319.408 17.0172 319.578 16.5956 319.716 16.1645C319.903 16.14 320.092 16.14 320.278 16.1645C320.987 16.1645 321.668 16.4303 322.169 16.9035C322.671 17.3767 322.953 18.0184 322.953 18.6876C322.949 19.1821 322.79 19.6647 322.498 20.0752C322.279 20.4026 321.975 20.6719 321.615 20.8574C320.998 21.1919 320.547 21.7441 320.362 22.3923C320.176 23.0405 320.271 23.7317 320.626 24.3139C320.98 24.8961 321.566 25.3215 322.253 25.4965C322.94 25.6716 323.673 25.582 324.29 25.2474C324.77 25.0024 325.219 24.7061 325.627 24.3644C326.519 24.8327 327.25 25.5321 327.735 26.3798C328.219 27.2276 328.436 28.1884 328.36 29.1487C328.284 30.109 327.918 31.0288 327.306 31.7994C326.694 32.5701 325.861 33.1594 324.905 33.4977H324.798Z" fill="#B73F16"/>
<path d="M304.649 17.9605H289.103V2.56579C289.103 1.8853 288.83 1.23268 288.344 0.751503C287.858 0.270324 287.199 0 286.512 0C285.825 0 285.166 0.270324 284.68 0.751503C284.194 1.23268 283.921 1.8853 283.921 2.56579V17.9605H268.375C267.688 17.9605 267.029 18.2309 266.543 18.712C266.057 19.1932 265.784 19.8458 265.784 20.5263C265.784 21.2068 266.057 21.8594 266.543 22.3406C267.029 22.8218 267.688 23.0921 268.375 23.0921H283.921V38.4868C283.921 39.1673 284.194 39.82 284.68 40.3011C285.166 40.7823 285.825 41.0526 286.512 41.0526C287.199 41.0526 287.858 40.7823 288.344 40.3011C288.83 39.82 289.103 39.1673 289.103 38.4868V23.0921H304.649C305.336 23.0921 305.995 22.8218 306.481 22.3406C306.967 21.8594 307.24 21.2068 307.24 20.5263C307.24 19.8458 306.967 19.1932 306.481 18.712C305.995 18.2309 305.336 17.9605 304.649 17.9605Z" fill="#CBE217"/>
<path d="M41.136 19.304V53H32.928V32.792L25.392 53H18.768L11.184 32.744V53H2.976V19.304H12.672L22.128 42.632L31.488 19.304H41.136ZM51.1665 23.432C49.7265 23.432 48.5425 23.016 47.6145 22.184C46.7185 21.32 46.2705 20.264 46.2705 19.016C46.2705 17.736 46.7185 16.68 47.6145 15.848C48.5425 14.984 49.7265 14.552 51.1665 14.552C52.5745 14.552 53.7265 14.984 54.6225 15.848C55.5505 16.68 56.0145 17.736 56.0145 19.016C56.0145 20.264 55.5505 21.32 54.6225 22.184C53.7265 23.016 52.5745 23.432 51.1665 23.432ZM55.2465 26.216V53H47.0385V26.216H55.2465ZM77.5148 25.928C80.6508 25.928 83.1468 26.952 85.0028 29C86.8908 31.016 87.8348 33.8 87.8348 37.352V53H79.6748V38.456C79.6748 36.664 79.2108 35.272 78.2828 34.28C77.3548 33.288 76.1068 32.792 74.5388 32.792C72.9708 32.792 71.7228 33.288 70.7948 34.28C69.8668 35.272 69.4028 36.664 69.4028 38.456V53H61.1948V26.216H69.4028V29.768C70.2348 28.584 71.3548 27.656 72.7628 26.984C74.1708 26.28 75.7548 25.928 77.5148 25.928ZM91.9065 39.56C91.9065 36.808 92.4185 34.392 93.4425 32.312C94.4985 30.232 95.9225 28.632 97.7145 27.512C99.5065 26.392 101.507 25.832 103.715 25.832C105.475 25.832 107.075 26.2 108.515 26.936C109.987 27.672 111.139 28.664 111.971 29.912V17.48H120.179V53H111.971V49.16C111.203 50.44 110.099 51.464 108.659 52.232C107.251 53 105.603 53.384 103.715 53.384C101.507 53.384 99.5065 52.824 97.7145 51.704C95.9225 50.552 94.4985 48.936 93.4425 46.856C92.4185 44.744 91.9065 42.312 91.9065 39.56ZM111.971 39.608C111.971 37.56 111.395 35.944 110.243 34.76C109.123 33.576 107.747 32.984 106.115 32.984C104.483 32.984 103.091 33.576 101.939 34.76C100.819 35.912 100.259 37.512 100.259 39.56C100.259 41.608 100.819 43.24 101.939 44.456C103.091 45.64 104.483 46.232 106.115 46.232C107.747 46.232 109.123 45.64 110.243 44.456C111.395 43.272 111.971 41.656 111.971 39.608Z" fill="#5E0707"/>
<path d="M164.277 19.304V53H156.069V32.792L148.533 53H141.909L134.325 32.744V53H126.117V19.304H135.813L145.269 42.632L154.629 19.304H164.277ZM168.547 39.56C168.547 36.808 169.059 34.392 170.083 32.312C171.139 30.232 172.563 28.632 174.355 27.512C176.147 26.392 178.147 25.832 180.355 25.832C182.243 25.832 183.891 26.216 185.299 26.984C186.739 27.752 187.843 28.76 188.611 30.008V26.216H196.819V53H188.611V49.208C187.811 50.456 186.691 51.464 185.251 52.232C183.843 53 182.195 53.384 180.307 53.384C178.131 53.384 176.147 52.824 174.355 51.704C172.563 50.552 171.139 48.936 170.083 46.856C169.059 44.744 168.547 42.312 168.547 39.56ZM188.611 39.608C188.611 37.56 188.035 35.944 186.883 34.76C185.763 33.576 184.387 32.984 182.755 32.984C181.123 32.984 179.731 33.576 178.579 34.76C177.459 35.912 176.899 37.512 176.899 39.56C176.899 41.608 177.459 43.24 178.579 44.456C179.731 45.64 181.123 46.232 182.755 46.232C184.387 46.232 185.763 45.64 186.883 44.456C188.035 43.272 188.611 41.656 188.611 39.608ZM217.685 46.04V53H213.509C210.533 53 208.213 52.28 206.549 50.84C204.885 49.368 204.053 46.984 204.053 43.688V33.032H200.789V26.216H204.053V19.688H212.261V26.216H217.637V33.032H212.261V43.784C212.261 44.584 212.453 45.16 212.837 45.512C213.221 45.864 213.861 46.04 214.757 46.04H217.685ZM220.625 39.608C220.625 36.824 221.185 34.392 222.305 32.312C223.457 30.232 225.041 28.632 227.057 27.512C229.105 26.392 231.441 25.832 234.065 25.832C237.425 25.832 240.225 26.712 242.465 28.472C244.737 30.232 246.225 32.712 246.929 35.912H238.193C237.457 33.864 236.033 32.84 233.921 32.84C232.417 32.84 231.217 33.432 230.321 34.616C229.425 35.768 228.977 37.432 228.977 39.608C228.977 41.784 229.425 43.464 230.321 44.648C231.217 45.8 232.417 46.376 233.921 46.376C236.033 46.376 237.457 45.352 238.193 43.304H246.929C246.225 46.44 244.737 48.904 242.465 50.696C240.193 52.488 237.393 53.384 234.065 53.384C231.441 53.384 229.105 52.824 227.057 51.704C225.041 50.584 223.457 48.984 222.305 46.904C221.185 44.824 220.625 42.392 220.625 39.608ZM267.784 25.928C270.856 25.928 273.32 26.952 275.176 29C277.032 31.016 277.96 33.8 277.96 37.352V53H269.8V38.456C269.8 36.664 269.336 35.272 268.408 34.28C267.48 33.288 266.232 32.792 264.664 32.792C263.096 32.792 261.848 33.288 260.92 34.28C259.992 35.272 259.528 36.664 259.528 38.456V53H251.32V17.48H259.528V29.816C260.36 28.632 261.496 27.688 262.936 26.984C264.376 26.28 265.992 25.928 267.784 25.928Z" fill="#1306B0"/>
</svg>
