<svg width="51" height="198" viewBox="0 0 51 198" fill="none" xmlns="http://www.w3.org/2000/svg">
<g clip-path="url(#clip0_1_19711)">
<path d="M1.02 2.04124C1.632 2.04124 2.04 1.63299 2.04 1.02062C2.04 0.408247 1.632 0 1.02 0C0.408 0 0 0.408247 0 1.02062C0 1.63299 0.408 2.04124 1.02 2.04124Z" fill="#E24100"/>
<path d="M13.06 2.04124C13.672 2.04124 14.08 1.63299 14.08 1.02062C14.08 0.408247 13.672 0 13.06 0C12.448 0 12.04 0.408247 12.04 1.02062C12.04 1.63299 12.448 2.04124 13.06 2.04124Z" fill="#E24100"/>
<path d="M25.1 2.04124C25.712 2.04124 26.12 1.63299 26.12 1.02062C26.12 0.408247 25.712 0 25.1 0C24.488 0 24.08 0.408247 24.08 1.02062C24.08 1.63299 24.488 2.04124 25.1 2.04124Z" fill="#E24100"/>
<path d="M37.1399 2.04124C37.7519 2.04124 38.1599 1.63299 38.1599 1.02062C38.1599 0.408247 37.7519 0 37.1399 0C36.5279 0 36.1199 0.408247 36.1199 1.02062C36.1199 1.63299 36.5279 2.04124 37.1399 2.04124Z" fill="#E24100"/>
<path d="M49.1799 2.04124C49.7919 2.04124 50.1999 1.63299 50.1999 1.02062C50.1999 0.408247 49.7919 0 49.1799 0C48.5679 0 48.1599 0.408247 48.1599 1.02062C48.1599 1.63299 48.5679 2.04124 49.1799 2.04124Z" fill="#E24100"/>
<path d="M1.02 14.2887C1.632 14.2887 2.04 13.8804 2.04 13.268C2.04 12.6557 1.632 12.2474 1.02 12.2474C0.408 12.2474 0 12.6557 0 13.268C0 13.8804 0.408 14.2887 1.02 14.2887Z" fill="#E24100"/>
<path d="M13.06 14.2887C13.672 14.2887 14.08 13.8804 14.08 13.268C14.08 12.6557 13.672 12.2474 13.06 12.2474C12.448 12.2474 12.04 12.6557 12.04 13.268C12.04 13.8804 12.448 14.2887 13.06 14.2887Z" fill="#E24100"/>
<path d="M25.1 14.2887C25.712 14.2887 26.12 13.8804 26.12 13.268C26.12 12.6557 25.712 12.2474 25.1 12.2474C24.488 12.2474 24.08 12.6557 24.08 13.268C24.08 13.8804 24.488 14.2887 25.1 14.2887Z" fill="#E24100"/>
<path d="M37.1399 14.2887C37.7519 14.2887 38.1599 13.8804 38.1599 13.268C38.1599 12.6557 37.7519 12.2474 37.1399 12.2474C36.5279 12.2474 36.1199 12.6557 36.1199 13.268C36.1199 13.8804 36.5279 14.2887 37.1399 14.2887Z" fill="#E24100"/>
<path d="M49.1799 14.2887C49.7919 14.2887 50.1999 13.8804 50.1999 13.268C50.1999 12.6557 49.7919 12.2474 49.1799 12.2474C48.5679 12.2474 48.1599 12.6557 48.1599 13.268C48.1599 13.8804 48.5679 14.2887 49.1799 14.2887Z" fill="#E24100"/>
<path d="M1.02 26.5361C1.632 26.5361 2.04 26.1278 2.04 25.5155C2.04 24.9031 1.632 24.4948 1.02 24.4948C0.408 24.4948 0 24.9031 0 25.5155C0 26.1278 0.408 26.5361 1.02 26.5361Z" fill="#E24100"/>
<path d="M13.06 26.5361C13.672 26.5361 14.08 26.1278 14.08 25.5155C14.08 24.9031 13.672 24.4948 13.06 24.4948C12.448 24.4948 12.04 24.9031 12.04 25.5155C12.04 26.1278 12.448 26.5361 13.06 26.5361Z" fill="#E24100"/>
<path d="M25.1 26.5361C25.712 26.5361 26.12 26.1278 26.12 25.5155C26.12 24.9031 25.712 24.4948 25.1 24.4948C24.488 24.4948 24.08 24.9031 24.08 25.5155C24.08 26.1278 24.488 26.5361 25.1 26.5361Z" fill="#E24100"/>
<path d="M37.1399 26.5361C37.7519 26.5361 38.1599 26.1278 38.1599 25.5155C38.1599 24.9031 37.7519 24.4948 37.1399 24.4948C36.5279 24.4948 36.1199 24.9031 36.1199 25.5155C36.1199 26.1278 36.5279 26.5361 37.1399 26.5361Z" fill="#E24100"/>
<path d="M49.1799 26.5361C49.7919 26.5361 50.1999 26.1278 50.1999 25.5155C50.1999 24.9031 49.7919 24.4948 49.1799 24.4948C48.5679 24.4948 48.1599 24.9031 48.1599 25.5155C48.1599 26.1278 48.5679 26.5361 49.1799 26.5361Z" fill="#E24100"/>
<path d="M1.02 38.7835C1.632 38.7835 2.04 38.3753 2.04 37.7629C2.04 37.1505 1.632 36.7423 1.02 36.7423C0.408 36.7423 0 37.1505 0 37.7629C0 38.3753 0.408 38.7835 1.02 38.7835Z" fill="#E24100"/>
<path d="M13.06 38.7835C13.672 38.7835 14.08 38.3753 14.08 37.7629C14.08 37.1505 13.672 36.7423 13.06 36.7423C12.448 36.7423 12.04 37.1505 12.04 37.7629C12.04 38.3753 12.448 38.7835 13.06 38.7835Z" fill="#E24100"/>
<path d="M25.1 38.7835C25.712 38.7835 26.12 38.3753 26.12 37.7629C26.12 37.1505 25.712 36.7423 25.1 36.7423C24.488 36.7423 24.08 37.1505 24.08 37.7629C24.08 38.3753 24.488 38.7835 25.1 38.7835Z" fill="#E24100"/>
<path d="M37.1399 38.7835C37.7519 38.7835 38.1599 38.3753 38.1599 37.7629C38.1599 37.1505 37.7519 36.7423 37.1399 36.7423C36.5279 36.7423 36.1199 37.1505 36.1199 37.7629C36.1199 38.3753 36.5279 38.7835 37.1399 38.7835Z" fill="#E24100"/>
<path d="M49.1799 38.7835C49.7919 38.7835 50.1999 38.3753 50.1999 37.7629C50.1999 37.1505 49.7919 36.7423 49.1799 36.7423C48.5679 36.7423 48.1599 37.1505 48.1599 37.7629C48.1599 38.3753 48.5679 38.7835 49.1799 38.7835Z" fill="#E24100"/>
<path d="M1.02 51.0309C1.632 51.0309 2.04 50.6227 2.04 50.0103C2.04 49.3979 1.632 48.9897 1.02 48.9897C0.408 48.9897 0 49.3979 0 50.0103C0 50.6227 0.408 51.0309 1.02 51.0309Z" fill="#E24100"/>
<path d="M13.06 51.0309C13.672 51.0309 14.08 50.6227 14.08 50.0103C14.08 49.3979 13.672 48.9897 13.06 48.9897C12.448 48.9897 12.04 49.3979 12.04 50.0103C12.04 50.6227 12.448 51.0309 13.06 51.0309Z" fill="#E24100"/>
<path d="M25.1 51.0309C25.712 51.0309 26.12 50.6227 26.12 50.0103C26.12 49.3979 25.712 48.9897 25.1 48.9897C24.488 48.9897 24.08 49.3979 24.08 50.0103C24.08 50.6227 24.488 51.0309 25.1 51.0309Z" fill="#E24100"/>
<path d="M37.1399 51.0309C37.7519 51.0309 38.1599 50.6227 38.1599 50.0103C38.1599 49.3979 37.7519 48.9897 37.1399 48.9897C36.5279 48.9897 36.1199 49.3979 36.1199 50.0103C36.1199 50.6227 36.5279 51.0309 37.1399 51.0309Z" fill="#E24100"/>
<path d="M49.1799 51.0309C49.7919 51.0309 50.1999 50.6227 50.1999 50.0103C50.1999 49.3979 49.7919 48.9897 49.1799 48.9897C48.5679 48.9897 48.1599 49.3979 48.1599 50.0103C48.1599 50.6227 48.5679 51.0309 49.1799 51.0309Z" fill="#E24100"/>
<path d="M1.02 63.2784C1.632 63.2784 2.04 62.8701 2.04 62.2577C2.04 61.6454 1.632 61.2371 1.02 61.2371C0.408 61.2371 0 61.6454 0 62.2577C0 62.8701 0.408 63.2784 1.02 63.2784Z" fill="#E24100"/>
<path d="M13.06 63.2784C13.672 63.2784 14.08 62.8701 14.08 62.2577C14.08 61.6454 13.672 61.2371 13.06 61.2371C12.448 61.2371 12.04 61.6454 12.04 62.2577C12.04 62.8701 12.448 63.2784 13.06 63.2784Z" fill="#E24100"/>
<path d="M25.1 63.2784C25.712 63.2784 26.12 62.8701 26.12 62.2577C26.12 61.6454 25.712 61.2371 25.1 61.2371C24.488 61.2371 24.08 61.6454 24.08 62.2577C24.08 62.8701 24.488 63.2784 25.1 63.2784Z" fill="#E24100"/>
<path d="M37.1399 63.2784C37.7519 63.2784 38.1599 62.8701 38.1599 62.2577C38.1599 61.6454 37.7519 61.2371 37.1399 61.2371C36.5279 61.2371 36.1199 61.6454 36.1199 62.2577C36.1199 62.8701 36.5279 63.2784 37.1399 63.2784Z" fill="#E24100"/>
<path d="M49.1799 63.2784C49.7919 63.2784 50.1999 62.8701 50.1999 62.2577C50.1999 61.6454 49.7919 61.2371 49.1799 61.2371C48.5679 61.2371 48.1599 61.6454 48.1599 62.2577C48.1599 62.8701 48.5679 63.2784 49.1799 63.2784Z" fill="#E24100"/>
<path d="M1.02 75.5258C1.632 75.5258 2.04 75.1175 2.04 74.5052C2.04 73.8928 1.632 73.4845 1.02 73.4845C0.408 73.4845 0 73.8928 0 74.5052C0 75.1175 0.408 75.5258 1.02 75.5258Z" fill="#E24100"/>
<path d="M13.06 75.5258C13.672 75.5258 14.08 75.1175 14.08 74.5052C14.08 73.8928 13.672 73.4845 13.06 73.4845C12.448 73.4845 12.04 73.8928 12.04 74.5052C12.04 75.1175 12.448 75.5258 13.06 75.5258Z" fill="#E24100"/>
<path d="M25.1 75.5258C25.712 75.5258 26.12 75.1175 26.12 74.5052C26.12 73.8928 25.712 73.4845 25.1 73.4845C24.488 73.4845 24.08 73.8928 24.08 74.5052C24.08 75.1175 24.488 75.5258 25.1 75.5258Z" fill="#E24100"/>
<path d="M37.1399 75.5258C37.7519 75.5258 38.1599 75.1175 38.1599 74.5052C38.1599 73.8928 37.7519 73.4845 37.1399 73.4845C36.5279 73.4845 36.1199 73.8928 36.1199 74.5052C36.1199 75.1175 36.5279 75.5258 37.1399 75.5258Z" fill="#E24100"/>
<path d="M49.1799 75.5258C49.7919 75.5258 50.1999 75.1175 50.1999 74.5052C50.1999 73.8928 49.7919 73.4845 49.1799 73.4845C48.5679 73.4845 48.1599 73.8928 48.1599 74.5052C48.1599 75.1175 48.5679 75.5258 49.1799 75.5258Z" fill="#E24100"/>
<path d="M1.02 87.7732C1.632 87.7732 2.04 87.3649 2.04 86.7526C2.04 86.1402 1.632 85.732 1.02 85.732C0.408 85.732 0 86.1402 0 86.7526C0 87.3649 0.408 87.7732 1.02 87.7732Z" fill="#E24100"/>
<path d="M13.06 87.7732C13.672 87.7732 14.08 87.3649 14.08 86.7526C14.08 86.1402 13.672 85.732 13.06 85.732C12.448 85.732 12.04 86.1402 12.04 86.7526C12.04 87.3649 12.448 87.7732 13.06 87.7732Z" fill="#E24100"/>
<path d="M25.1 87.7732C25.712 87.7732 26.12 87.3649 26.12 86.7526C26.12 86.1402 25.712 85.732 25.1 85.732C24.488 85.732 24.08 86.1402 24.08 86.7526C24.08 87.3649 24.488 87.7732 25.1 87.7732Z" fill="#E24100"/>
<path d="M37.1399 87.7732C37.7519 87.7732 38.1599 87.3649 38.1599 86.7526C38.1599 86.1402 37.7519 85.732 37.1399 85.732C36.5279 85.732 36.1199 86.1402 36.1199 86.7526C36.1199 87.3649 36.5279 87.7732 37.1399 87.7732Z" fill="#E24100"/>
<path d="M49.1799 87.7732C49.7919 87.7732 50.1999 87.3649 50.1999 86.7526C50.1999 86.1402 49.7919 85.732 49.1799 85.732C48.5679 85.732 48.1599 86.1402 48.1599 86.7526C48.1599 87.3649 48.5679 87.7732 49.1799 87.7732Z" fill="#E24100"/>
<path d="M1.02 100.021C1.632 100.021 2.04 99.6124 2.04 99C2.04 98.3876 1.632 97.9794 1.02 97.9794C0.408 97.9794 0 98.3876 0 99C0 99.6124 0.408 100.021 1.02 100.021Z" fill="#E24100"/>
<path d="M13.06 100.021C13.672 100.021 14.08 99.6124 14.08 99C14.08 98.3876 13.672 97.9794 13.06 97.9794C12.448 97.9794 12.04 98.3876 12.04 99C12.04 99.6124 12.448 100.021 13.06 100.021Z" fill="#E24100"/>
<path d="M25.1 100.021C25.712 100.021 26.12 99.6124 26.12 99C26.12 98.3876 25.712 97.9794 25.1 97.9794C24.488 97.9794 24.08 98.3876 24.08 99C24.08 99.6124 24.488 100.021 25.1 100.021Z" fill="#E24100"/>
<path d="M37.1399 100.021C37.7519 100.021 38.1599 99.6124 38.1599 99C38.1599 98.3876 37.7519 97.9794 37.1399 97.9794C36.5279 97.9794 36.1199 98.3876 36.1199 99C36.1199 99.6124 36.5279 100.021 37.1399 100.021Z" fill="#E24100"/>
<path d="M49.1799 100.021C49.7919 100.021 50.1999 99.6124 50.1999 99C50.1999 98.3876 49.7919 97.9794 49.1799 97.9794C48.5679 97.9794 48.1599 98.3876 48.1599 99C48.1599 99.6124 48.5679 100.021 49.1799 100.021Z" fill="#E24100"/>
<path d="M1.02 112.268C1.632 112.268 2.04 111.86 2.04 111.247C2.04 110.635 1.632 110.227 1.02 110.227C0.408 110.227 0 110.635 0 111.247C0 111.86 0.408 112.268 1.02 112.268Z" fill="#E24100"/>
<path d="M13.06 112.268C13.672 112.268 14.08 111.86 14.08 111.247C14.08 110.635 13.672 110.227 13.06 110.227C12.448 110.227 12.04 110.635 12.04 111.247C12.04 111.86 12.448 112.268 13.06 112.268Z" fill="#E24100"/>
<path d="M25.1 112.268C25.712 112.268 26.12 111.86 26.12 111.247C26.12 110.635 25.712 110.227 25.1 110.227C24.488 110.227 24.08 110.635 24.08 111.247C24.08 111.86 24.488 112.268 25.1 112.268Z" fill="#E24100"/>
<path d="M37.1399 112.268C37.7519 112.268 38.1599 111.86 38.1599 111.247C38.1599 110.635 37.7519 110.227 37.1399 110.227C36.5279 110.227 36.1199 110.635 36.1199 111.247C36.1199 111.86 36.5279 112.268 37.1399 112.268Z" fill="#E24100"/>
<path d="M49.1799 112.268C49.7919 112.268 50.1999 111.86 50.1999 111.247C50.1999 110.635 49.7919 110.227 49.1799 110.227C48.5679 110.227 48.1599 110.635 48.1599 111.247C48.1599 111.86 48.5679 112.268 49.1799 112.268Z" fill="#E24100"/>
<path d="M1.02 124.515C1.632 124.515 2.04 124.107 2.04 123.495C2.04 122.882 1.632 122.474 1.02 122.474C0.408 122.474 0 122.882 0 123.495C0 124.107 0.408 124.515 1.02 124.515Z" fill="#E24100"/>
<path d="M13.06 124.515C13.672 124.515 14.08 124.107 14.08 123.495C14.08 122.882 13.672 122.474 13.06 122.474C12.448 122.474 12.04 122.882 12.04 123.495C12.04 124.107 12.448 124.515 13.06 124.515Z" fill="#E24100"/>
<path d="M25.1 124.515C25.712 124.515 26.12 124.107 26.12 123.495C26.12 122.882 25.712 122.474 25.1 122.474C24.488 122.474 24.08 122.882 24.08 123.495C24.08 124.107 24.488 124.515 25.1 124.515Z" fill="#E24100"/>
<path d="M37.1399 124.515C37.7519 124.515 38.1599 124.107 38.1599 123.495C38.1599 122.882 37.7519 122.474 37.1399 122.474C36.5279 122.474 36.1199 122.882 36.1199 123.495C36.1199 124.107 36.5279 124.515 37.1399 124.515Z" fill="#E24100"/>
<path d="M49.1799 124.515C49.7919 124.515 50.1999 124.107 50.1999 123.495C50.1999 122.882 49.7919 122.474 49.1799 122.474C48.5679 122.474 48.1599 122.882 48.1599 123.495C48.1599 124.107 48.5679 124.515 49.1799 124.515Z" fill="#E24100"/>
<path d="M1.02 136.763C1.632 136.763 2.04 136.355 2.04 135.742C2.04 135.13 1.632 134.722 1.02 134.722C0.408 134.722 0 135.13 0 135.742C0 136.355 0.408 136.763 1.02 136.763Z" fill="#E24100"/>
<path d="M13.06 136.763C13.672 136.763 14.08 136.355 14.08 135.742C14.08 135.13 13.672 134.722 13.06 134.722C12.448 134.722 12.04 135.13 12.04 135.742C12.04 136.355 12.448 136.763 13.06 136.763Z" fill="#E24100"/>
<path d="M25.1 136.763C25.712 136.763 26.12 136.355 26.12 135.742C26.12 135.13 25.712 134.722 25.1 134.722C24.488 134.722 24.08 135.13 24.08 135.742C24.08 136.355 24.488 136.763 25.1 136.763Z" fill="#E24100"/>
<path d="M37.1399 136.763C37.7519 136.763 38.1599 136.355 38.1599 135.742C38.1599 135.13 37.7519 134.722 37.1399 134.722C36.5279 134.722 36.1199 135.13 36.1199 135.742C36.1199 136.355 36.5279 136.763 37.1399 136.763Z" fill="#E24100"/>
<path d="M49.1799 136.763C49.7919 136.763 50.1999 136.355 50.1999 135.742C50.1999 135.13 49.7919 134.722 49.1799 134.722C48.5679 134.722 48.1599 135.13 48.1599 135.742C48.1599 136.355 48.5679 136.763 49.1799 136.763Z" fill="#E24100"/>
<path d="M1.02 149.01C1.632 149.01 2.04 148.602 2.04 147.99C2.04 147.377 1.632 146.969 1.02 146.969C0.408 146.969 0 147.377 0 147.99C0 148.602 0.408 149.01 1.02 149.01Z" fill="#E24100"/>
<path d="M13.06 149.01C13.672 149.01 14.08 148.602 14.08 147.99C14.08 147.377 13.672 146.969 13.06 146.969C12.448 146.969 12.04 147.377 12.04 147.99C12.04 148.602 12.448 149.01 13.06 149.01Z" fill="#E24100"/>
<path d="M25.1 149.01C25.712 149.01 26.12 148.602 26.12 147.99C26.12 147.377 25.712 146.969 25.1 146.969C24.488 146.969 24.08 147.377 24.08 147.99C24.08 148.602 24.488 149.01 25.1 149.01Z" fill="#E24100"/>
<path d="M37.1399 149.01C37.7519 149.01 38.1599 148.602 38.1599 147.99C38.1599 147.377 37.7519 146.969 37.1399 146.969C36.5279 146.969 36.1199 147.377 36.1199 147.99C36.1199 148.602 36.5279 149.01 37.1399 149.01Z" fill="#E24100"/>
<path d="M49.1799 149.01C49.7919 149.01 50.1999 148.602 50.1999 147.99C50.1999 147.377 49.7919 146.969 49.1799 146.969C48.5679 146.969 48.1599 147.377 48.1599 147.99C48.1599 148.602 48.5679 149.01 49.1799 149.01Z" fill="#E24100"/>
<path d="M1.02 161.258C1.632 161.258 2.04 160.849 2.04 160.237C2.04 159.625 1.632 159.216 1.02 159.216C0.408 159.216 0 159.625 0 160.237C0 160.849 0.408 161.258 1.02 161.258Z" fill="#E24100"/>
<path d="M13.06 161.258C13.672 161.258 14.08 160.849 14.08 160.237C14.08 159.625 13.672 159.216 13.06 159.216C12.448 159.216 12.04 159.625 12.04 160.237C12.04 160.849 12.448 161.258 13.06 161.258Z" fill="#E24100"/>
<path d="M25.1 161.258C25.712 161.258 26.12 160.849 26.12 160.237C26.12 159.625 25.712 159.216 25.1 159.216C24.488 159.216 24.08 159.625 24.08 160.237C24.08 160.849 24.488 161.258 25.1 161.258Z" fill="#E24100"/>
<path d="M37.1399 161.258C37.7519 161.258 38.1599 160.849 38.1599 160.237C38.1599 159.625 37.7519 159.216 37.1399 159.216C36.5279 159.216 36.1199 159.625 36.1199 160.237C36.1199 160.849 36.5279 161.258 37.1399 161.258Z" fill="#E24100"/>
<path d="M49.1799 161.258C49.7919 161.258 50.1999 160.849 50.1999 160.237C50.1999 159.625 49.7919 159.216 49.1799 159.216C48.5679 159.216 48.1599 159.625 48.1599 160.237C48.1599 160.849 48.5679 161.258 49.1799 161.258Z" fill="#E24100"/>
<path d="M1.02 173.505C1.632 173.505 2.04 173.097 2.04 172.485C2.04 171.872 1.632 171.464 1.02 171.464C0.408 171.464 0 171.872 0 172.485C0 173.097 0.408 173.505 1.02 173.505Z" fill="#E24100"/>
<path d="M13.06 173.505C13.672 173.505 14.08 173.097 14.08 172.485C14.08 171.872 13.672 171.464 13.06 171.464C12.448 171.464 12.04 171.872 12.04 172.485C12.04 173.097 12.448 173.505 13.06 173.505Z" fill="#E24100"/>
<path d="M25.1 173.505C25.712 173.505 26.12 173.097 26.12 172.485C26.12 171.872 25.712 171.464 25.1 171.464C24.488 171.464 24.08 171.872 24.08 172.485C24.08 173.097 24.488 173.505 25.1 173.505Z" fill="#E24100"/>
<path d="M37.1399 173.505C37.7519 173.505 38.1599 173.097 38.1599 172.485C38.1599 171.872 37.7519 171.464 37.1399 171.464C36.5279 171.464 36.1199 171.872 36.1199 172.485C36.1199 173.097 36.5279 173.505 37.1399 173.505Z" fill="#E24100"/>
<path d="M49.1799 173.505C49.7919 173.505 50.1999 173.097 50.1999 172.485C50.1999 171.872 49.7919 171.464 49.1799 171.464C48.5679 171.464 48.1599 171.872 48.1599 172.485C48.1599 173.097 48.5679 173.505 49.1799 173.505Z" fill="#E24100"/>
<path d="M1.02 185.753C1.632 185.753 2.04 185.344 2.04 184.732C2.04 184.12 1.632 183.711 1.02 183.711C0.408 183.711 0 184.12 0 184.732C0 185.344 0.408 185.753 1.02 185.753Z" fill="#E24100"/>
<path d="M13.06 185.753C13.672 185.753 14.08 185.344 14.08 184.732C14.08 184.12 13.672 183.711 13.06 183.711C12.448 183.711 12.04 184.12 12.04 184.732C12.04 185.344 12.448 185.753 13.06 185.753Z" fill="#E24100"/>
<path d="M25.1 185.753C25.712 185.753 26.12 185.344 26.12 184.732C26.12 184.12 25.712 183.711 25.1 183.711C24.488 183.711 24.08 184.12 24.08 184.732C24.08 185.344 24.488 185.753 25.1 185.753Z" fill="#E24100"/>
<path d="M37.1399 185.753C37.7519 185.753 38.1599 185.344 38.1599 184.732C38.1599 184.12 37.7519 183.711 37.1399 183.711C36.5279 183.711 36.1199 184.12 36.1199 184.732C36.1199 185.344 36.5279 185.753 37.1399 185.753Z" fill="#E24100"/>
<path d="M49.1799 185.753C49.7919 185.753 50.1999 185.344 50.1999 184.732C50.1999 184.12 49.7919 183.711 49.1799 183.711C48.5679 183.711 48.1599 184.12 48.1599 184.732C48.1599 185.344 48.5679 185.753 49.1799 185.753Z" fill="#E24100"/>
<path d="M1.02 198C1.632 198 2.04 197.592 2.04 196.979C2.04 196.367 1.632 195.959 1.02 195.959C0.408 195.959 0 196.367 0 196.979C0 197.592 0.408 198 1.02 198Z" fill="#E24100"/>
<path d="M13.06 198C13.672 198 14.08 197.592 14.08 196.979C14.08 196.367 13.672 195.959 13.06 195.959C12.448 195.959 12.04 196.367 12.04 196.979C12.04 197.592 12.448 198 13.06 198Z" fill="#E24100"/>
<path d="M25.1 198C25.712 198 26.12 197.592 26.12 196.979C26.12 196.367 25.712 195.959 25.1 195.959C24.488 195.959 24.08 196.367 24.08 196.979C24.08 197.592 24.488 198 25.1 198Z" fill="#E24100"/>
<path d="M37.1399 198C37.7519 198 38.1599 197.592 38.1599 196.979C38.1599 196.367 37.7519 195.959 37.1399 195.959C36.5279 195.959 36.1199 196.367 36.1199 196.979C36.1199 197.592 36.5279 198 37.1399 198Z" fill="#E24100"/>
<path d="M49.1799 198C49.7919 198 50.1999 197.592 50.1999 196.979C50.1999 196.367 49.7919 195.959 49.1799 195.959C48.5679 195.959 48.1599 196.367 48.1599 196.979C48.1599 197.592 48.5679 198 49.1799 198Z" fill="#E24100"/>
</g>
<defs>
<clipPath id="clip0_1_19711">
<rect width="51" height="198" fill="white"/>
</clipPath>
</defs>
</svg>
