<svg width="361" height="49" viewBox="0 0 361 49" fill="none" xmlns="http://www.w3.org/2000/svg">
<path d="M18.035 36L11.027 23.28H9.059V36H0.851V2.304H14.627C17.283 2.304 19.539 2.768 21.395 3.696C23.283 4.624 24.691 5.904 25.619 7.536C26.547 9.136 27.011 10.928 27.011 12.912C27.011 15.152 26.371 17.152 25.091 18.912C23.843 20.672 21.987 21.92 19.523 22.656L27.299 36H18.035ZM9.059 17.472H14.147C15.651 17.472 16.771 17.104 17.507 16.368C18.275 15.632 18.659 14.592 18.659 13.248C18.659 11.968 18.275 10.96 17.507 10.224C16.771 9.488 15.651 9.12 14.147 9.12H9.059V17.472ZM57.4115 22.176C57.4115 22.944 57.3635 23.744 57.2675 24.576H38.6915C38.8195 26.24 39.3475 27.52 40.2755 28.416C41.2355 29.28 42.4035 29.712 43.7795 29.712C45.8275 29.712 47.2515 28.848 48.0515 27.12H56.7875C56.3395 28.88 55.5235 30.464 54.3395 31.872C53.1875 33.28 51.7315 34.384 49.9715 35.184C48.2115 35.984 46.2435 36.384 44.0675 36.384C41.4435 36.384 39.1075 35.824 37.0595 34.704C35.0115 33.584 33.4115 31.984 32.2595 29.904C31.1075 27.824 30.5315 25.392 30.5315 22.608C30.5315 19.824 31.0915 17.392 32.2115 15.312C33.3635 13.232 34.9635 11.632 37.0115 10.512C39.0595 9.392 41.4115 8.832 44.0675 8.832C46.6595 8.832 48.9635 9.376 50.9795 10.464C52.9955 11.552 54.5635 13.104 55.6835 15.12C56.8355 17.136 57.4115 19.488 57.4115 22.176ZM49.0115 20.016C49.0115 18.608 48.5315 17.488 47.5715 16.656C46.6115 15.824 45.4115 15.408 43.9715 15.408C42.5955 15.408 41.4275 15.808 40.4675 16.608C39.5395 17.408 38.9635 18.544 38.7395 20.016H49.0115ZM78.0616 8.928C81.1976 8.928 83.6936 9.952 85.5496 12C87.4376 14.016 88.3816 16.8 88.3816 20.352V36H80.2216V21.456C80.2216 19.664 79.7576 18.272 78.8296 17.28C77.9016 16.288 76.6536 15.792 75.0856 15.792C73.5176 15.792 72.2696 16.288 71.3416 17.28C70.4136 18.272 69.9496 19.664 69.9496 21.456V36H61.7416V9.216H69.9496V12.768C70.7816 11.584 71.9016 10.656 73.3096 9.984C74.7176 9.28 76.3016 8.928 78.0616 8.928ZM109.013 29.04V36H104.837C101.861 36 99.5414 35.28 97.8774 33.84C96.2134 32.368 95.3814 29.984 95.3814 26.688V16.032H92.1174V9.216H95.3814V2.688H103.589V9.216H108.965V16.032H103.589V26.784C103.589 27.584 103.781 28.16 104.165 28.512C104.549 28.864 105.189 29.04 106.085 29.04H109.013Z" fill="#5E0707"/>
<path d="M143.729 36H135.521L121.793 15.216V36H113.585V2.304H121.793L135.521 23.184V2.304H143.729V36ZM148.047 22.56C148.047 19.808 148.559 17.392 149.583 15.312C150.639 13.232 152.063 11.632 153.855 10.512C155.647 9.392 157.647 8.832 159.855 8.832C161.743 8.832 163.391 9.216 164.799 9.984C166.239 10.752 167.343 11.76 168.111 13.008V9.216H176.319V36H168.111V32.208C167.311 33.456 166.191 34.464 164.751 35.232C163.343 36 161.695 36.384 159.807 36.384C157.631 36.384 155.647 35.824 153.855 34.704C152.063 33.552 150.639 31.936 149.583 29.856C148.559 27.744 148.047 25.312 148.047 22.56ZM168.111 22.608C168.111 20.56 167.535 18.944 166.383 17.76C165.263 16.576 163.887 15.984 162.255 15.984C160.623 15.984 159.231 16.576 158.079 17.76C156.959 18.912 156.399 20.512 156.399 22.56C156.399 24.608 156.959 26.24 158.079 27.456C159.231 28.64 160.623 29.232 162.255 29.232C163.887 29.232 165.263 28.64 166.383 27.456C167.535 26.272 168.111 24.656 168.111 22.608Z" fill="#ACB006"/>
<path d="M206.497 2.304V8.88H197.569V36H189.361V8.88H180.433V2.304H206.497ZM235.865 22.176C235.865 22.944 235.817 23.744 235.721 24.576H217.145C217.273 26.24 217.801 27.52 218.729 28.416C219.689 29.28 220.857 29.712 222.233 29.712C224.281 29.712 225.705 28.848 226.505 27.12H235.241C234.793 28.88 233.977 30.464 232.793 31.872C231.641 33.28 230.185 34.384 228.425 35.184C226.665 35.984 224.697 36.384 222.521 36.384C219.897 36.384 217.561 35.824 215.513 34.704C213.465 33.584 211.865 31.984 210.713 29.904C209.561 27.824 208.985 25.392 208.985 22.608C208.985 19.824 209.545 17.392 210.665 15.312C211.817 13.232 213.417 11.632 215.465 10.512C217.513 9.392 219.865 8.832 222.521 8.832C225.113 8.832 227.417 9.376 229.433 10.464C231.449 11.552 233.017 13.104 234.137 15.12C235.289 17.136 235.865 19.488 235.865 22.176ZM227.465 20.016C227.465 18.608 226.985 17.488 226.025 16.656C225.065 15.824 223.865 15.408 222.425 15.408C221.049 15.408 219.881 15.808 218.921 16.608C217.993 17.408 217.417 18.544 217.193 20.016H227.465ZM256.563 36L248.403 24.768V36H240.195V0.48H248.403V20.112L256.515 9.216H266.643L255.507 22.656L266.739 36H256.563ZM286.187 8.928C289.323 8.928 291.819 9.952 293.675 12C295.563 14.016 296.507 16.8 296.507 20.352V36H288.347V21.456C288.347 19.664 287.883 18.272 286.955 17.28C286.027 16.288 284.779 15.792 283.211 15.792C281.643 15.792 280.395 16.288 279.467 17.28C278.539 18.272 278.075 19.664 278.075 21.456V36H269.867V9.216H278.075V12.768C278.907 11.584 280.027 10.656 281.435 9.984C282.843 9.28 284.427 8.928 286.187 8.928ZM314.402 36.384C311.778 36.384 309.41 35.824 307.298 34.704C305.218 33.584 303.57 31.984 302.354 29.904C301.17 27.824 300.578 25.392 300.578 22.608C300.578 19.856 301.186 17.44 302.402 15.36C303.618 13.248 305.282 11.632 307.394 10.512C309.506 9.392 311.874 8.832 314.498 8.832C317.122 8.832 319.49 9.392 321.602 10.512C323.714 11.632 325.378 13.248 326.594 15.36C327.81 17.44 328.418 19.856 328.418 22.608C328.418 25.36 327.794 27.792 326.546 29.904C325.33 31.984 323.65 33.584 321.506 34.704C319.394 35.824 317.026 36.384 314.402 36.384ZM314.402 29.28C315.97 29.28 317.298 28.704 318.386 27.552C319.506 26.4 320.066 24.752 320.066 22.608C320.066 20.464 319.522 18.816 318.434 17.664C317.378 16.512 316.066 15.936 314.498 15.936C312.898 15.936 311.57 16.512 310.514 17.664C309.458 18.784 308.93 20.432 308.93 22.608C308.93 24.752 309.442 26.4 310.466 27.552C311.522 28.704 312.834 29.28 314.402 29.28ZM360.133 9.216L343.333 48.72H334.501L340.645 35.088L329.749 9.216H338.917L345.109 25.968L351.253 9.216H360.133Z" fill="black"/>
</svg>
